<svg width="229" height="81" viewBox="0 0 229 81" fill="none" xmlns="http://www.w3.org/2000/svg">
<path d="M0.968 1.4H8.936C11.656 1.4 13.64 2.04 14.888 3.32C16.136 4.568 16.76 6.504 16.76 9.128V10.472C16.76 12.2 16.472 13.608 15.896 14.696C15.352 15.784 14.504 16.568 13.352 17.048V17.144C15.976 18.04 17.288 20.376 17.288 24.152V27.032C17.288 29.624 16.6 31.608 15.224 32.984C13.88 34.328 11.896 35 9.272 35H0.968V1.4ZM8.312 15.08C9.368 15.08 10.152 14.808 10.664 14.264C11.208 13.72 11.48 12.808 11.48 11.528V9.656C11.48 8.44 11.256 7.56 10.808 7.016C10.392 6.472 9.72 6.2 8.792 6.2H6.248V15.08H8.312ZM9.272 30.2C10.2 30.2 10.888 29.96 11.336 29.48C11.784 28.968 12.008 28.104 12.008 26.888V23.96C12.008 22.424 11.736 21.368 11.192 20.792C10.68 20.184 9.816 19.88 8.6 19.88H6.248V30.2H9.272ZM20.3743 1.4H28.1983C30.9183 1.4 32.9023 2.04 34.1503 3.32C35.3983 4.568 36.0223 6.504 36.0223 9.128V11.192C36.0223 14.68 34.8703 16.888 32.5663 17.816V17.912C33.8463 18.296 34.7423 19.08 35.2543 20.264C35.7983 21.448 36.0703 23.032 36.0703 25.016V30.92C36.0703 31.88 36.1023 32.664 36.1663 33.272C36.2303 33.848 36.3903 34.424 36.6463 35H31.2703C31.0783 34.456 30.9503 33.944 30.8863 33.464C30.8223 32.984 30.7903 32.12 30.7903 30.872V24.728C30.7903 23.192 30.5343 22.12 30.0223 21.512C29.5423 20.904 28.6943 20.6 27.4783 20.6H25.6543V35H20.3743V1.4ZM27.5743 15.8C28.6303 15.8 29.4143 15.528 29.9263 14.984C30.4703 14.44 30.7422 13.528 30.7422 12.248V9.656C30.7422 8.44 30.5183 7.56 30.0703 7.016C29.6543 6.472 28.9823 6.2 28.0543 6.2H25.6543V15.8H27.5743ZM39.7336 1.4H45.0136V35H39.7336V1.4ZM48.968 1.4H57.032C59.656 1.4 61.624 2.104 62.936 3.512C64.248 4.92 64.904 6.984 64.904 9.704V26.696C64.904 29.416 64.248 31.48 62.936 32.888C61.624 34.296 59.656 35 57.032 35H48.968V1.4ZM56.936 30.2C57.8 30.2 58.456 29.944 58.904 29.432C59.384 28.92 59.624 28.088 59.624 26.936V9.464C59.624 8.312 59.384 7.48 58.904 6.968C58.456 6.456 57.8 6.2 56.936 6.2H54.248V30.2H56.936ZM75.956 35.48C73.396 35.48 71.444 34.76 70.1 33.32C68.756 31.848 68.084 29.752 68.084 27.032V9.368C68.084 6.648 68.756 4.568 70.1 3.128C71.444 1.656 73.396 0.919998 75.956 0.919998C78.516 0.919998 80.468 1.656 81.812 3.128C83.156 4.568 83.828 6.648 83.828 9.368V12.248H78.836V9.032C78.836 6.824 77.924 5.72 76.1 5.72C74.276 5.72 73.364 6.824 73.364 9.032V27.416C73.364 29.592 74.276 30.68 76.1 30.68C77.924 30.68 78.836 29.592 78.836 27.416V20.84H76.196V16.04H83.828V27.032C83.828 29.752 83.156 31.848 81.812 33.32C80.468 34.76 78.516 35.48 75.956 35.48ZM87.218 1.4H101.618V6.2H92.498V15.08H99.746V19.88H92.498V30.2H101.618V35H87.218V1.4ZM103.408 1.4H108.496L110.848 27.224H110.944L113.44 1.4H119.2L121.696 27.224H121.792L124.144 1.4H128.704L125.296 35H118.72L116.32 12.344H116.224L113.824 35H106.816L103.408 1.4ZM134.798 1.4H141.95L147.422 35H142.142L141.182 28.328V28.424H135.182L134.222 35H129.326L134.798 1.4ZM140.558 23.864L138.206 7.256H138.11L135.806 23.864H140.558ZM151.909 6.2H146.389V1.4H162.709V6.2H157.189V35H151.909V6.2ZM165.265 1.4H179.665V6.2H170.545V15.08H177.793V19.88H170.545V30.2H179.665V35H165.265V1.4ZM182.702 1.4H190.526C193.246 1.4 195.23 2.04 196.478 3.32C197.726 4.568 198.35 6.504 198.35 9.128V11.192C198.35 14.68 197.198 16.888 194.894 17.816V17.912C196.174 18.296 197.07 19.08 197.582 20.264C198.126 21.448 198.398 23.032 198.398 25.016V30.92C198.398 31.88 198.43 32.664 198.494 33.272C198.558 33.848 198.718 34.424 198.974 35H193.598C193.406 34.456 193.278 33.944 193.214 33.464C193.15 32.984 193.118 32.12 193.118 30.872V24.728C193.118 23.192 192.862 22.12 192.35 21.512C191.87 20.904 191.022 20.6 189.806 20.6H187.982V35H182.702V1.4ZM189.902 15.8C190.958 15.8 191.742 15.528 192.254 14.984C192.798 14.44 193.07 13.528 193.07 12.248V9.656C193.07 8.44 192.846 7.56 192.398 7.016C191.982 6.472 191.31 6.2 190.382 6.2H187.982V15.8H189.902ZM0.968 46.4H6.248V80H0.968V46.4ZM10.2024 46.4H16.8264L21.9624 66.512H22.0584V46.4H26.7624V80H21.3384L15.0024 55.472H14.9064V80H10.2024V46.4ZM29.2948 46.4H34.6228L38.0788 72.464H38.1748L41.6308 46.4H46.4788L41.3907 80H34.3828L29.2948 46.4ZM49.0149 46.4H63.4149V51.2H54.2949V60.08H61.5429V64.88H54.2949V75.2H63.4149V80H49.0149V46.4ZM73.4101 80.48C70.8501 80.48 68.9141 79.76 67.6021 78.32C66.2901 76.848 65.6341 74.752 65.6341 72.032V70.112H70.6261V72.416C70.6261 74.592 71.5381 75.68 73.3621 75.68C74.2581 75.68 74.9301 75.424 75.3781 74.912C75.8581 74.368 76.0981 73.504 76.0981 72.32C76.0981 70.912 75.7781 69.68 75.1381 68.624C74.4981 67.536 73.3141 66.24 71.5861 64.736C69.4101 62.816 67.8901 61.088 67.0261 59.552C66.1621 57.984 65.7301 56.224 65.7301 54.272C65.7301 51.616 66.4021 49.568 67.7461 48.128C69.0901 46.656 71.0421 45.92 73.6021 45.92C76.1301 45.92 78.0341 46.656 79.3141 48.128C80.6261 49.568 81.2821 51.648 81.2821 54.368V55.76H76.2901V54.032C76.2901 52.88 76.0661 52.048 75.6181 51.536C75.1701 50.992 74.5141 50.72 73.6501 50.72C71.8901 50.72 71.0101 51.792 71.0101 53.936C71.0101 55.152 71.3301 56.288 71.9701 57.344C72.6421 58.4 73.8421 59.68 75.5701 61.184C77.7781 63.104 79.2981 64.848 80.1301 66.416C80.9621 67.984 81.3781 69.824 81.3781 71.936C81.3781 74.688 80.6901 76.8 79.3141 78.272C77.9701 79.744 76.0021 80.48 73.4101 80.48ZM88.5335 51.2H83.0135V46.4H99.3335V51.2H93.8135V80H88.5335V51.2ZM101.89 46.4H107.17V80H101.89V46.4ZM118.612 80.48C116.052 80.48 114.1 79.76 112.756 78.32C111.412 76.848 110.74 74.752 110.74 72.032V54.368C110.74 51.648 111.412 49.568 112.756 48.128C114.1 46.656 116.052 45.92 118.612 45.92C121.172 45.92 123.124 46.656 124.468 48.128C125.812 49.568 126.484 51.648 126.484 54.368V57.248H121.492V54.032C121.492 51.824 120.58 50.72 118.756 50.72C116.932 50.72 116.02 51.824 116.02 54.032V72.416C116.02 74.592 116.932 75.68 118.756 75.68C120.58 75.68 121.492 74.592 121.492 72.416V65.84H118.852V61.04H126.484V72.032C126.484 74.752 125.812 76.848 124.468 78.32C123.124 79.76 121.172 80.48 118.612 80.48ZM133.954 46.4H141.106L146.578 80H141.298L140.338 73.328V73.424H134.338L133.378 80H128.482L133.954 46.4ZM139.714 68.864L137.362 52.256H137.266L134.962 68.864H139.714ZM151.065 51.2H145.545V46.4H161.865V51.2H156.345V80H151.065V51.2ZM164.421 46.4H169.701V80H164.421V46.4ZM181.288 80.48C178.696 80.48 176.712 79.744 175.336 78.272C173.96 76.8 173.271 74.72 173.271 72.032V54.368C173.271 51.68 173.96 49.6 175.336 48.128C176.712 46.656 178.696 45.92 181.288 45.92C183.88 45.92 185.864 46.656 187.24 48.128C188.616 49.6 189.304 51.68 189.304 54.368V72.032C189.304 74.72 188.616 76.8 187.24 78.272C185.864 79.744 183.88 80.48 181.288 80.48ZM181.288 75.68C183.112 75.68 184.023 74.576 184.023 72.368V54.032C184.023 51.824 183.112 50.72 181.288 50.72C179.464 50.72 178.552 51.824 178.552 54.032V72.368C178.552 74.576 179.464 75.68 181.288 75.68ZM192.874 46.4H199.498L204.634 66.512H204.73V46.4H209.434V80H204.01L197.674 55.472H197.578V80H192.874V46.4ZM220.223 80.48C217.663 80.48 215.727 79.76 214.415 78.32C213.103 76.848 212.447 74.752 212.447 72.032V70.112H217.439V72.416C217.439 74.592 218.351 75.68 220.175 75.68C221.071 75.68 221.743 75.424 222.191 74.912C222.671 74.368 222.911 73.504 222.911 72.32C222.911 70.912 222.591 69.68 221.951 68.624C221.311 67.536 220.127 66.24 218.399 64.736C216.223 62.816 214.703 61.088 213.839 59.552C212.975 57.984 212.543 56.224 212.543 54.272C212.543 51.616 213.215 49.568 214.559 48.128C215.903 46.656 217.855 45.92 220.415 45.92C222.943 45.92 224.847 46.656 226.127 48.128C227.439 49.568 228.095 51.648 228.095 54.368V55.76H223.103V54.032C223.103 52.88 222.879 52.048 222.431 51.536C221.983 50.992 221.327 50.72 220.463 50.72C218.703 50.72 217.823 51.792 217.823 53.936C217.823 55.152 218.143 56.288 218.783 57.344C219.455 58.4 220.655 59.68 222.383 61.184C224.591 63.104 226.111 64.848 226.943 66.416C227.775 67.984 228.191 69.824 228.191 71.936C228.191 74.688 227.503 76.8 226.127 78.272C224.783 79.744 222.815 80.48 220.223 80.48Z" fill="white"/>
</svg>
